<?xml version="1.0" standalone="no"?><!DOCTYPE svg PUBLIC "-//W3C//DTD SVG 1.1//EN" "http://www.w3.org/Graphics/SVG/1.1/DTD/svg11.dtd"><svg t="1632276516256" class="icon" viewBox="0 0 1024 1024" version="1.1" xmlns="http://www.w3.org/2000/svg" p-id="2728" xmlns:xlink="http://www.w3.org/1999/xlink" width="20" height="20"><defs><style type="text/css"></style></defs><path d="M736.896 362.666667c0 80.64-40.618667 151.722667-102.570667 194.005333 6.698667 2.432 13.312 5.077333 19.84 7.893333 15.146667 6.528 15.701333 27.477333 3.370667 38.4-3.882667 3.498667-7.68 7.082667-11.221333 10.837334a24.149333 24.149333 0 0 1-26.24 5.930666 320.128 320.128 0 0 0-427.52 216.618667 22.357333 22.357333 0 0 1-21.333334 16.981333h-22.442666a20.309333 20.309333 0 0 1-20.224-24.746666 384.768 384.768 0 0 1 241.621333-271.914667A234.666667 234.666667 0 1 1 736.938667 362.666667z m-234.666667 170.666666a170.666667 170.666667 0 1 0 0-341.333333 170.666667 170.666667 0 0 0 0 341.333333zM818.218667 818.218667L682.666667 682.666667l-135.552 135.552a21.333333 21.333333 0 0 0 0 30.165333l15.104 15.061333a21.333333 21.333333 0 0 0 30.165333 0L682.666667 773.162667l90.282666 90.282666a21.333333 21.333333 0 0 0 30.165334 0l15.104-15.061333a21.333333 21.333333 0 0 0 0-30.165333z" p-id="2729"></path></svg>