<?xml version="1.0" standalone="no"?><!DOCTYPE svg PUBLIC "-//W3C//DTD SVG 1.1//EN" "http://www.w3.org/Graphics/SVG/1.1/DTD/svg11.dtd"><svg t="1631942880146" class="icon" viewBox="0 0 1024 1024" version="1.1" xmlns="http://www.w3.org/2000/svg" p-id="2466" xmlns:xlink="http://www.w3.org/1999/xlink" width="20" height="20"><defs><style type="text/css"></style></defs><path d="M523.39815 1023.534769a511.75366 511.75366 0 1 1 396.376471-837.41508 519.662581 519.662581 0 0 1 46.52306 67.458437 46.52306 46.52306 0 1 1-80.484894 46.52306A418.70754 418.70754 0 1 0 197.736729 776.497321a418.70754 418.70754 0 0 0 576.420714 70.24982 46.52306 46.52306 0 1 1 55.827672 74.436896A511.75366 511.75366 0 0 1 523.39815 1023.534769z" fill="#0B70DD" p-id="2467"></path><path d="M772.761752 290.331343l201.444849-164.691632a23.26153 23.26153 0 0 1 37.683679 20.470146l-18.609224 182.835626a23.26153 23.26153 0 0 1-25.587683 20.935377l-182.835626-18.609224a23.26153 23.26153 0 0 1-12.095995-40.940293z" fill="#3395FF" p-id="2468"></path></svg>